<svg width="26" height="26" viewBox="0 0 26 26" fill="none" xmlns="http://www.w3.org/2000/svg">
<path d="M9.33691 3.04571H16.6631V2.38715C16.6631 1.07017 17.7332 0 19.0502 0C20.3672 0 21.4374 1.07017 21.4374 2.38715V3.04571H21.9313C23.7422 3.04571 25.224 4.52731 25.224 6.33838V22.3073C25.224 24.1182 23.7424 25.6 21.9313 25.6H4.06894C2.25806 25.6 0.776276 24.1184 0.776276 22.3073V6.33838C0.776276 4.5275 2.25787 3.04571 4.06894 3.04571H4.56288V2.38715C4.56288 1.07017 5.63305 0 6.95003 0C8.26701 0 9.33718 1.07017 9.33718 2.38715V3.04571H9.33691ZM16.6631 4.69198H9.33691V5.02126C9.33691 6.33824 8.26674 7.40842 6.94976 7.40842C5.63278 7.40842 4.56261 6.33824 4.56261 5.02126V4.69198H4.06866C3.16311 4.69198 2.4224 5.43287 2.4224 6.33824V7.73751H23.5776V6.33824C23.5776 5.43269 22.8367 4.69198 21.9313 4.69198H21.4374V5.02126C21.4374 6.33824 20.3672 7.40842 19.0502 7.40842C17.7332 7.40842 16.6631 6.33824 16.6631 5.02126V4.69198ZM19.0502 1.64626C18.6386 1.64626 18.3093 1.97555 18.3093 2.38715V5.02126C18.3093 5.43286 18.6386 5.76215 19.0502 5.76215C19.4618 5.76215 19.7911 5.43286 19.7911 5.02126V2.38715C19.7911 1.97555 19.4618 1.64626 19.0502 1.64626ZM6.94967 1.64626C6.53806 1.64626 6.20878 1.97555 6.20878 2.38715V5.02126C6.20878 5.43286 6.53806 5.76215 6.94967 5.76215C7.36127 5.76215 7.69056 5.43286 7.69056 5.02126V2.38715C7.69056 1.97555 7.36127 1.64626 6.94967 1.64626ZM23.5773 9.38386H2.42213V22.3073C2.42213 23.2128 3.16302 23.9536 4.06839 23.9536H21.9308C22.8363 23.9536 23.577 23.2127 23.577 22.3073V9.38386H23.5773Z" fill="#3A445D"/>
</svg>
