<svg width="55" height="56" viewBox="0 0 55 56" fill="none" xmlns="http://www.w3.org/2000/svg">
<path d="M55 10.7329L42.35 0L38.8025 4.25422L51.4525 14.9871L55 10.7329ZM16.17 4.25422L12.65 0L0 10.7051L3.5475 14.9593L16.17 4.25422ZM28.875 17.0725H24.75V33.7557L37.8125 41.6802L39.875 38.2602L28.875 31.6703V17.0725ZM27.5 5.95035C13.8325 5.95035 2.75 17.1559 2.75 30.9752C2.75 44.7944 13.805 56 27.5 56C41.1675 56 52.25 44.7944 52.25 30.9752C52.25 17.1559 41.1675 5.95035 27.5 5.95035ZM27.5 50.4389C16.8575 50.4389 8.25 41.7359 8.25 30.9752C8.25 20.2145 16.8575 11.5114 27.5 11.5114C38.1425 11.5114 46.75 20.2145 46.75 30.9752C46.75 41.7359 38.1425 50.4389 27.5 50.4389Z" fill="#3A445D"/>
</svg>
