<svg width="127" height="127" viewBox="0 0 127 127" fill="none" xmlns="http://www.w3.org/2000/svg">
<path fill-rule="evenodd" clip-rule="evenodd" d="M10.5834 63.5C10.5834 34.2371 34.2371 10.5833 63.4471 10.5833C92.71 10.5833 116.417 34.2371 116.417 63.5C116.417 92.7629 92.6571 116.417 63.4471 116.417C34.2371 116.417 10.5834 92.7629 10.5834 63.5ZM44.1855 60.6954L46.99 57.8908L49.7946 60.6954C51.3292 62.23 53.8692 62.23 55.4038 60.6954C56.9384 59.1608 56.9384 56.6208 55.4038 55.0863L52.5992 52.2817L55.4038 49.4771C56.9384 47.9425 56.9384 45.4025 55.4038 43.8679C53.8692 42.3333 51.3292 42.3333 49.7946 43.8679L46.99 46.6725L44.1855 43.8679C42.6509 42.3333 40.1109 42.3333 38.5763 43.8679C37.0417 45.4025 37.0417 47.9425 38.5763 49.4771L41.3809 52.2817L38.5763 55.0863C37.0417 56.6208 37.0417 59.1608 38.5763 60.6954C40.1109 62.23 42.6509 62.23 44.1855 60.6954ZM63.5 71.4375C52.758 71.4375 43.3917 77.3113 38.3646 85.9896C37.3592 87.7358 38.6821 89.9583 40.693 89.9583H86.3071C88.318 89.9583 89.6409 87.7358 88.6355 85.9896C83.6084 77.3113 74.2421 71.4375 63.5 71.4375ZM63.5 105.833C40.1109 105.833 21.1667 86.8892 21.1667 63.5C21.1667 40.1108 40.1109 21.1667 63.5 21.1667C86.8892 21.1667 105.833 40.1108 105.833 63.5C105.833 86.8892 86.8892 105.833 63.5 105.833ZM80.01 46.6725L82.8146 43.8679C84.3492 42.3333 86.8892 42.3333 88.4238 43.8679C89.9584 45.4025 89.9584 47.9425 88.4238 49.4771L85.6192 52.2817L88.4238 55.0863C89.9584 56.6208 89.9584 59.1608 88.4238 60.6954C86.8892 62.23 84.3492 62.23 82.8146 60.6954L80.01 57.8908L77.2055 60.6954C75.6709 62.23 73.1309 62.23 71.5963 60.6954C70.0617 59.1608 70.0617 56.6208 71.5963 55.0863L74.4009 52.2817L71.5963 49.4771C70.0617 47.9425 70.0617 45.4025 71.5963 43.8679C73.1309 42.3333 75.6709 42.3333 77.2055 43.8679L80.01 46.6725Z" fill="#3A445D"/>
</svg>
