<svg width="127" height="127" viewBox="0 0 127 127" fill="none" xmlns="http://www.w3.org/2000/svg">
<path fill-rule="evenodd" clip-rule="evenodd" d="M63.4471 10.5833C34.2371 10.5833 10.5834 34.2371 10.5834 63.5C10.5834 92.7629 34.2371 116.417 63.4471 116.417C92.6571 116.417 116.417 92.7629 116.417 63.5C116.417 34.2371 92.71 10.5833 63.4471 10.5833ZM46.99 52.5992L49.7946 55.4038C51.3292 56.9383 53.8692 56.9383 55.4038 55.4038C56.9384 53.8692 56.9384 51.3292 55.4038 49.7946L50.7471 45.1379C49.7585 44.147 48.4162 43.5902 47.0165 43.5902C45.6168 43.5902 44.2745 44.147 43.2859 45.1379L38.5763 49.7946C37.0417 51.3292 37.0417 53.8692 38.5763 55.4038C40.1109 56.9383 42.6509 56.9383 44.1855 55.4038L46.99 52.5992ZM63.5 92.6042C74.2421 92.6042 83.6084 86.7304 88.6355 78.0521C89.6409 76.3058 88.3709 74.0833 86.3071 74.0833H40.693C38.6821 74.0833 37.3592 76.3058 38.3646 78.0521C43.3917 86.7304 52.758 92.6042 63.5 92.6042ZM77.2055 55.4038C75.6709 56.9383 73.1309 56.9383 71.5963 55.4038C70.0617 53.8692 70.0617 51.3292 71.6492 49.7946L76.3059 45.1379C77.2945 44.147 78.6368 43.5902 80.0365 43.5902C81.4362 43.5902 82.7785 44.147 83.7671 45.1379L88.4238 49.7946C89.9584 51.3292 89.9584 53.8692 88.4238 55.4038C86.8892 56.9383 84.3492 56.9383 82.8146 55.4038L80.01 52.5992L77.2055 55.4038ZM21.1667 63.5C21.1667 86.8892 40.1109 105.833 63.5 105.833C86.8892 105.833 105.833 86.8892 105.833 63.5C105.833 40.1108 86.8892 21.1667 63.5 21.1667C40.1109 21.1667 21.1667 40.1108 21.1667 63.5Z" fill="#3A445D"/>
</svg>
