<svg width="127" height="127" viewBox="0 0 127 127" fill="none" xmlns="http://www.w3.org/2000/svg">
<path fill-rule="evenodd" clip-rule="evenodd" d="M63.4471 10.5833C34.2371 10.5833 10.5834 34.29 10.5834 63.5C10.5834 92.71 34.2371 116.417 63.4471 116.417C92.71 116.417 116.417 92.71 116.417 63.5C116.417 34.29 92.71 10.5833 63.4471 10.5833ZM37.0417 50.2708C37.0417 45.8871 40.5954 42.3333 44.9792 42.3333C49.363 42.3333 52.9167 45.8871 52.9167 50.2708C52.9167 54.6546 49.363 58.2083 44.9792 58.2083C40.5954 58.2083 37.0417 54.6546 37.0417 50.2708ZM82.0209 42.3333C77.6371 42.3333 74.0834 45.8871 74.0834 50.2708C74.0834 54.6546 77.6371 58.2083 82.0209 58.2083C86.4046 58.2083 89.9584 54.6546 89.9584 50.2708C89.9584 45.8871 86.4046 42.3333 82.0209 42.3333ZM47.625 78.0521C47.625 80.2217 49.4242 82.0208 51.5938 82.0208H75.4063C77.5759 82.0208 79.375 80.2217 79.375 78.0521C79.375 75.8825 77.5759 74.0833 75.4063 74.0833H51.5938C49.4242 74.0833 47.625 75.8825 47.625 78.0521ZM21.1667 63.5C21.1667 86.8892 40.1109 105.833 63.5 105.833C86.8892 105.833 105.833 86.8892 105.833 63.5C105.833 40.1108 86.8892 21.1667 63.5 21.1667C40.1109 21.1667 21.1667 40.1108 21.1667 63.5Z" fill="#3A445D"/>
</svg>
