<?xml version="1.0" encoding="UTF-8" standalone="no"?>
<svg
   width="32"
   height="32"
   version="1.1"
   viewBox="0 0 24 24"
   id="svg167"
   sodipodi:docname="panda-icon.svg"
   inkscape:version="1.1.1 (3bf5ae0d25, 2021-09-20)"
   xmlns:inkscape="http://www.inkscape.org/namespaces/inkscape"
   xmlns:sodipodi="http://sodipodi.sourceforge.net/DTD/sodipodi-0.dtd"
   xmlns="http://www.w3.org/2000/svg"
   xmlns:svg="http://www.w3.org/2000/svg">
  <sodipodi:namedview
     id="namedview169"
     pagecolor="#ffffff"
     bordercolor="#666666"
     borderopacity="1.0"
     inkscape:pageshadow="2"
     inkscape:pageopacity="0.0"
     inkscape:pagecheckerboard="0"
     inkscape:document-units="pt"
     showgrid="false"
     fit-margin-top="0"
     fit-margin-left="0"
     fit-margin-right="0"
     fit-margin-bottom="0"
     units="px"
     inkscape:zoom="5.2851181"
     inkscape:cx="78.616975"
     inkscape:cy="53.641185"
     inkscape:window-width="1858"
     inkscape:window-height="1057"
     inkscape:window-x="1134"
     inkscape:window-y="363"
     inkscape:window-maximized="1"
     inkscape:current-layer="svg167" />
  <defs
     id="defs65">
    <symbol
       id="l"
       overflow="visible">
      <path
         d="M 13.016,-0.78125 C 12.34803,-0.42578 11.6488,-0.16016 10.9222,0.01563 10.19173,0.19141 9.43,0.28125 8.641,0.28125 c -2.3555,0 -4.2266,-0.66016 -5.6094,-1.9844 -1.375,-1.3203 -2.0625,-3.1133 -2.0625,-5.375 0,-2.2578 0.6875,-4.0469 2.0625,-5.3594 1.3828,-1.3203 3.2539,-1.9844 5.6094,-1.9844 0.78906,0 1.5508,0.08984 2.2812,0.26562 0.72656,0.17969 1.4258,0.4375 2.0938,0.78125 v 2.9375 c -0.67969,-0.46875 -1.3438,-0.80469 -2,-1.0156 -0.65625,-0.21875 -1.3516,-0.32812 -2.0781,-0.32812 -1.3047,0 -2.3281,0.42188 -3.0781,1.2656 -0.74219,0.83594 -1.1094,1.9805 -1.1094,3.4375 0,1.4688 0.36719,2.6211 1.1094,3.4531 0.75,0.83594 1.7734,1.25 3.0781,1.25 0.72656,0 1.4219,-0.10156 2.0781,-0.3125 0.65625,-0.21875 1.3203,-0.5625 2,-1.0312 z"
         id="path2" />
    </symbol>
    <symbol
       id="c"
       overflow="visible">
      <path
         d="M 9.5312,-7.7344 C 9.22651,-7.86721 8.92964,-7.96878 8.64058,-8.03128 8.34761,-8.101592 8.05074,-8.14066 7.74996,-8.14066 c -0.875,0 -1.5469,0.28125 -2.0156,0.84375 -0.46875,0.55469 -0.70312,1.3555 -0.70312,2.4062 v 4.8906 h -3.4062 v -10.625 h 3.4062 v 1.7344 c 0.4375,-0.6875 0.9375,-1.1914 1.5,-1.5156 0.57031,-0.32031 1.2539,-0.48438 2.0469,-0.48438 0.10156,0 0.22266,0.0078 0.35938,0.01563 0.13281,0.01172 0.32812,0.03125 0.57812,0.0625 z"
         id="path5" />
    </symbol>
    <symbol
       id="b"
       overflow="visible">
      <path
         d="m 12.25,-5.3438 v 0.96875 H 4.2969 c 0.082031,0.80469 0.36719,1.4023 0.85938,1.7969 0.5,0.39844 1.1914,0.59375 2.0781,0.59375 0.70703,0 1.4375,-0.10156 2.1875,-0.3125 0.75,-0.21875 1.5195,-0.53906 2.3125,-0.96875 v 2.625 c -0.80469,0.30469 -1.6055,0.53125 -2.4062,0.6875 -0.80469,0.15625 -1.6055,0.23438 -2.4062,0.23438 -1.9297,0 -3.4297,-0.48828 -4.5,-1.4688 -1.0625,-0.97656 -1.5938,-2.3516 -1.5938,-4.125 0,-1.7266 0.52344,-3.0859 1.5781,-4.0781 1.0508,-1 2.4922,-1.5 4.3281,-1.5 1.6641,0 3,0.50781 4,1.5156 1.0078,1 1.5156,2.3438 1.5156,4.0312 z m -3.5,-1.125 c 0,-0.64453 -0.1875,-1.1641 -0.5625,-1.5625 -0.375,-0.39453 -0.87109,-0.59375 -1.4844,-0.59375 -0.65625,0 -1.1953,0.1875 -1.6094,0.5625 -0.40625,0.36719 -0.65625,0.89844 -0.75,1.5938 z"
         id="path8" />
    </symbol>
    <symbol
       id="j"
       overflow="visible">
      <path
         d="m 6.3906,-4.7812 c -0.71094,0 -1.2422,0.12109 -1.5938,0.35938 -0.35547,0.24219 -0.53125,0.59375 -0.53125,1.0625 0,0.42969 0.14062,0.76562 0.42188,1.0156 0.28906,0.24219 0.69141,0.35938 1.2031,0.35938 0.64453,0 1.1797,-0.22656 1.6094,-0.6875 0.4375,-0.45703 0.65625,-1.0312 0.65625,-1.7188 v -0.39062 z m 5.2031,-1.2812 V 1e-4 H 8.1562 V -1.578 C 7.70698,-0.92956 7.19526,-0.4569 6.625,-0.1561 6.05078,0.13296 5.3594,0.2814 4.5469,0.2814 c -1.1055,0 -2,-0.32031 -2.6875,-0.96875 -0.6875,-0.64453 -1.0312,-1.4766 -1.0312,-2.5 0,-1.25 0.42578,-2.1641 1.2812,-2.75 0.86328,-0.58203 2.2109,-0.875 4.0469,-0.875 h 2 v -0.26562 c 0,-0.53125 -0.21484,-0.92188 -0.64062,-1.1719 -0.41797,-0.25 -1.0742,-0.375 -1.9688,-0.375 -0.73047,0 -1.4062,0.074219 -2.0312,0.21875 -0.625,0.14844 -1.2109,0.36719 -1.75,0.65625 v -2.5938 c 0.72656,-0.17578 1.457,-0.3125 2.1875,-0.40625 0.73828,-0.09375 1.4727,-0.14062 2.2031,-0.14062 1.9141,0 3.3008,0.38281 4.1562,1.1406 0.85156,0.75 1.2812,1.9805 1.2812,3.6875 z"
         id="path11" />
    </symbol>
    <symbol
       id="a"
       overflow="visible">
      <path
         d="m 5.3438,-13.641 v 3.0156 h 3.5 v 2.4219 h -3.5 v 4.5156 c 0,0.49219 0.097656,0.82422 0.29688,1 0.19531,0.16797 0.58594,0.25 1.1719,0.25 h 1.7344 V -4e-4 h -2.9062 c -1.3438,0 -2.2969,-0.28125 -2.8594,-0.84375 -0.55469,-0.5625 -0.82812,-1.5078 -0.82812,-2.8438 v -4.5156 h -1.7031 v -2.4219 h 1.7031 v -3.0156 z"
         id="path14" />
    </symbol>
    <symbol
       id="i"
       overflow="visible">
      <path
         d="m 8.8594,-9.0781 v -5.6875 h 3.4219 V 4e-4 H 8.8594 v -1.5312 c -0.46875,0.625 -0.98438,1.0859 -1.5469,1.375 -0.56252,0.2891 -1.2148,0.4375 -1.9531,0.4375 -1.3125,0 -2.3906,-0.51953 -3.2344,-1.5625 -0.83594,-1.0391 -1.25,-2.3828 -1.25,-4.0312 0,-1.6328 0.41406,-2.9727 1.25,-4.0156 0.84375,-1.0391 1.9219,-1.5625 3.2344,-1.5625 0.73828,0 1.3906,0.15234 1.9531,0.45312 0.5625,0.29297 1.0781,0.74609 1.5469,1.3594 z M 6.625,-2.1875 c 0.72656,0 1.2812,-0.26562 1.6562,-0.79688 0.38281,-0.53125 0.57812,-1.3047 0.57812,-2.3281 0,-1.0078 -0.19531,-1.7812 -0.57812,-2.3125 -0.375,-0.53125 -0.92969,-0.79688 -1.6562,-0.79688 -0.71875,0 -1.2734,0.26562 -1.6562,0.79688 -0.38672,0.53125 -0.57812,1.3047 -0.57812,2.3125 0,1.0234 0.19141,1.7969 0.57812,2.3281 0.38281,0.53125 0.9375,0.79688 1.6562,0.79688 z"
         id="path17" />
    </symbol>
    <symbol
       id="n"
       overflow="visible">
      <path
         d="m 7.2969,-2.1875 c 0.71875,0 1.2695,-0.26562 1.6562,-0.79688 0.38281,-0.53125 0.57812,-1.3047 0.57812,-2.3281 0,-1.0078 -0.19531,-1.7812 -0.57812,-2.3125 -0.38672,-0.53125 -0.9375,-0.79688 -1.6562,-0.79688 -0.73047,0 -1.293,0.27344 -1.6875,0.8125 -0.38672,0.53125 -0.57812,1.2969 -0.57812,2.2969 0,1.0117 0.19141,1.7891 0.57812,2.3281 0.39453,0.53125 0.95703,0.79688 1.6875,0.79688 z M 5.0313,-9.0781 c 0.46875,-0.61328 0.98438,-1.0664 1.5469,-1.3594 0.57031,-0.30078 1.2266,-0.45312 1.9688,-0.45312 1.3125,0 2.3906,0.52344 3.2344,1.5625 0.84375,1.043 1.2656,2.3828 1.2656,4.0156 0,1.6484 -0.42188,2.9922 -1.2656,4.0312 -0.84375,1.043 -1.9219,1.5625 -3.2344,1.5625 -0.74219,0 -1.3984,-0.14844 -1.9688,-0.4375 -0.5625,-0.30078 -1.0781,-0.75781 -1.5469,-1.375 v 1.5312 H 1.6251 v -14.766 h 3.4062 z"
         id="path20" />
    </symbol>
    <symbol
       id="m"
       overflow="visible">
      <path
         d="m 0.23438,-10.625 h 3.4062 l 2.8438,7.2031 2.4375,-7.2031 h 3.3906 L 7.84368,1 C 7.39446,2.1875 6.86712,3.0156 6.26558,3.4844 5.67183,3.95315 4.88278,4.18752 3.90618,4.18752 h -1.9531 v -2.2188 h 1.0625 c 0.57031,0 0.98828,-0.09375 1.25,-0.28125 C 4.52339,1.50778 4.72652,1.17966 4.87496,0.70309 L 4.96871,0.40621 Z"
         id="path23" />
    </symbol>
    <symbol
       id="h"
       overflow="visible">
      <path
         d="M 12.312,-6.4688 V 0 H 8.9058 V -4.9375 C 8.9058,-5.86328 8.882362,-6.5 8.8433,-6.8437 8.800331,-7.19526 8.72611,-7.45698 8.62455,-7.62495 8.48783,-7.8437 8.30424,-8.01557 8.07767,-8.14057 c -0.21875,-0.125 -0.47656,-0.1875 -0.76562,-0.1875 -0.71094,0 -1.2656,0.27734 -1.6719,0.82812 -0.40625,0.54297 -0.60938,1.2969 -0.60938,2.2656 V 5e-5 h -3.4062 v -14.766 h 3.4062 v 5.6875 c 0.50781,-0.61328 1.0508,-1.0664 1.625,-1.3594 0.58203,-0.30078 1.2227,-0.45312 1.9219,-0.45312 1.2188,0 2.1445,0.38281 2.7812,1.1406 0.63281,0.75 0.95312,1.8438 0.95312,3.2812 z"
         id="path26" />
    </symbol>
    <symbol
       id="g"
       overflow="visible">
      <path
         d="M 12.312,-6.4688 V 0 H 8.9058 V -4.9531 C 8.9058,-5.86716 8.882362,-6.5 8.8433,-6.8437 8.800331,-7.19526 8.72611,-7.45698 8.62455,-7.62495 8.48783,-7.8437 8.30424,-8.01557 8.07767,-8.14057 c -0.21875,-0.125 -0.47656,-0.1875 -0.76562,-0.1875 -0.71094,0 -1.2656,0.27734 -1.6719,0.82812 -0.40625,0.54297 -0.60938,1.2969 -0.60938,2.2656 V 5e-5 h -3.4062 v -10.625 h 3.4062 v 1.5469 c 0.50781,-0.61328 1.0508,-1.0664 1.625,-1.3594 0.58203,-0.30078 1.2227,-0.45312 1.9219,-0.45312 1.2188,0 2.1445,0.38281 2.7812,1.1406 0.63281,0.75 0.95312,1.8438 0.95312,3.2812 z"
         id="path29" />
    </symbol>
    <symbol
       id="f"
       overflow="visible">
      <path
         d="m 1.5156,-4.1406 v -6.4844 h 3.4219 v 1.0625 c 0,0.57422 -0.00781,1.2969 -0.015625,2.1719 v 1.7344 c 0,0.85547 0.019531,1.4688 0.0625,1.8438 0.039063,0.375 0.11328,0.65234 0.21875,0.82812 0.14453,0.21875 0.32812,0.39062 0.54688,0.51562 0.22656,0.11719 0.48828,0.17188 0.78125,0.17188 0.70703,0 1.2656,-0.26953 1.6719,-0.8125 0.40625,-0.53906 0.60938,-1.2969 0.60938,-2.2656 v -5.25 h 3.3906 v 10.625 h -3.3906 v -1.5312 c -0.52344,0.61719 -1.0703,1.0742 -1.6406,1.375 -0.5625,0.28906 -1.1953,0.4375 -1.8906,0.4375 -1.2305,0 -2.168,-0.375 -2.8125,-1.125 -0.63672,-0.75781 -0.95312,-1.8594 -0.95312,-3.2969 z"
         id="path32" />
    </symbol>
    <symbol
       id="k"
       overflow="visible">
      <path
         d="M 1.625,-10.625 H 5.0312 V 0 H 1.625 Z m 0,-4.1406 H 5.0312 V -12 H 1.625 Z"
         id="path35" />
    </symbol>
    <symbol
       id="e"
       overflow="visible">
      <path
         d="m 9.9375,-10.297 v 2.5781 C 9.20703,-8.01968 8.5039,-8.24234 7.8281,-8.39078 7.14841,-8.54703 6.5078,-8.62516 5.9062,-8.62516 c -0.64844,0 -1.125,0.085938 -1.4375,0.25 -0.3125,0.15625 -0.46875,0.40234 -0.46875,0.73438 0,0.27344 0.11719,0.48047 0.35938,0.625 0.23828,0.14844 0.66406,0.25781 1.2812,0.32812 l 0.59375,0.078125 c 1.7383,0.21875 2.9102,0.58594 3.5156,1.0938 0.60156,0.51172 0.90625,1.3086 0.90625,2.3906 0,1.125 -0.42188,1.9766 -1.2656,2.5469 -0.83594,0.57422 -2.0781,0.85938 -3.7344,0.85938 -0.69922,0 -1.4219,-0.058594 -2.1719,-0.17188 -0.75,-0.11328 -1.5234,-0.28125 -2.3125,-0.5 v -2.5781 c 0.67578,0.32422 1.3672,0.57031 2.0781,0.73438 0.70703,0.16797 1.4297,0.25 2.1719,0.25 0.66406,0 1.1641,-0.085937 1.5,-0.26562 0.33203,-0.1875 0.5,-0.46094 0.5,-0.82812 0,-0.30078 -0.11719,-0.52344 -0.34375,-0.67188 -0.23047,-0.15625 -0.69531,-0.26953 -1.3906,-0.34375 L 5.09363,-4.17195 c -1.5117,-0.1875 -2.5742,-0.53516 -3.1875,-1.0469 -0.60547,-0.51953 -0.90625,-1.3008 -0.90625,-2.3438 0,-1.125 0.38281,-1.957 1.1562,-2.5 0.78125,-0.55078 1.9688,-0.82812 3.5625,-0.82812 0.625,0 1.2812,0.05469 1.9688,0.15625 0.6875,0.09375 1.4375,0.24219 2.25,0.4375 z"
         id="path38" />
    </symbol>
    <symbol
       id="u"
       overflow="visible">
      <path
         d="M 1.7812,-14.172 H 5.4374 V 0 H 1.7812 Z"
         id="path41" />
    </symbol>
    <symbol
       id="t"
       overflow="visible">
      <path
         d="m 8.625,-14.766 v 2.2344 H 6.75 c -0.48047,0 -0.82031,0.08984 -1.0156,0.26562 -0.1875,0.16797 -0.28125,0.46484 -0.28125,0.89062 v 0.75 h 2.9062 v 2.4219 h -2.9062 v 8.2031 h -3.3906 v -8.2031 h -1.6875 v -2.4219 h 1.6875 v -0.75 c 0,-1.1562 0.32031,-2.0078 0.96875,-2.5625 0.64453,-0.55078 1.6445,-0.82812 3,-0.82812 z"
         id="path44" />
    </symbol>
    <symbol
       id="d"
       overflow="visible">
      <path
         d="m 6.6875,-8.4531 c -0.75,0 -1.3242,0.27344 -1.7188,0.8125 -0.39844,0.54297 -0.59375,1.3203 -0.59375,2.3281 0,1.0234 0.19531,1.8047 0.59375,2.3438 0.39453,0.54297 0.96875,0.8125 1.7188,0.8125 0.73828,0 1.3047,-0.26953 1.7031,-0.8125 0.39453,-0.53906 0.59375,-1.3203 0.59375,-2.3438 0,-1.0078 -0.19922,-1.7852 -0.59375,-2.3281 C 7.99216,-8.17966 7.42576,-8.4531 6.6875,-8.4531 Z m 0,-2.4375 c 1.832,0 3.2578,0.49609 4.2812,1.4844 1.0312,0.99219 1.5469,2.3555 1.5469,4.0938 0,1.75 -0.51562,3.1211 -1.5469,4.1094 C 9.9453,-0.21081 8.5195,0.2814 6.6875,0.2814 4.8516,0.2814 3.4141,-0.21079 2.375,-1.203 1.3438,-2.19128 0.8281,-3.5624 0.8281,-5.3124 c 0,-1.7383 0.51562,-3.1016 1.5469,-4.0938 1.0391,-0.98828 2.4766,-1.4844 4.3125,-1.4844 z"
         id="path47" />
    </symbol>
    <symbol
       id="s"
       overflow="visible">
      <path
         d="m 11.484,-8.8594 c 0.42578,-0.66406 0.9375,-1.1719 1.5312,-1.5156 0.5937,-0.3437 1.2422,-0.51562 1.9531,-0.51562 1.2188,0 2.1445,0.38281 2.7812,1.1406 0.64453,0.75 0.96875,1.8438 0.96875,3.2812 V -2e-5 h -3.4219 v -5.5469 c 0.0078,-0.082031 0.01563,-0.16406 0.01563,-0.25 v -0.375 c 0,-0.75781 -0.10938,-1.3047 -0.32812,-1.6406 -0.21875,-0.34375 -0.57812,-0.51562 -1.0781,-0.51562 -0.63672,0 -1.1328,0.26562 -1.4844,0.79688 -0.35547,0.53125 -0.53906,1.3047 -0.54688,2.3125 V 4e-5 h -3.4219 v -5.5469 c 0,-1.1758 -0.10547,-1.9297 -0.3125,-2.2656 -0.19922,-0.34375 -0.55469,-0.51562 -1.0625,-0.51562 -0.65625,0 -1.1641,0.27344 -1.5156,0.8125 -0.35547,0.53125 -0.53125,1.293 -0.53125,2.2812 V 2e-5 h -3.4219 v -10.625 h 3.4219 v 1.5469 c 0.41406,-0.59375 0.89453,-1.0391 1.4375,-1.3438 0.53906,-0.3125 1.1328,-0.46875 1.7812,-0.46875 0.73828,0 1.3906,0.17969 1.9531,0.53125 0.5625,0.35547 0.98828,0.85547 1.2812,1.5 z"
         id="path50" />
    </symbol>
    <symbol
       id="r"
       overflow="visible">
      <path
         d="m 1.7812,-14.172 h 4.0781 l 5.1562,9.7188 v -9.7188 h 3.4688 V 0 H 10.4062 L 5.25,-9.7188 V 0 H 1.7812 Z"
         id="path53" />
    </symbol>
    <symbol
       id="q"
       overflow="visible">
      <path
         d="m 1.7812,-14.172 h 6.0625 c 1.8008,0 3.1875,0.40234 4.1562,1.2031 0.96875,0.80469 1.4531,1.9453 1.4531,3.4219 0,1.4922 -0.48438,2.6367 -1.4531,3.4375 -0.96875,0.79297 -2.3555,1.1875 -4.1562,1.1875 H 5.4375 V -1e-4 H 1.7813 Z m 3.6562,2.6562 v 3.9531 H 7.453 c 0.70703,0 1.2539,-0.17188 1.6406,-0.51562 0.39453,-0.34375 0.59375,-0.83203 0.59375,-1.4688 0,-0.63281 -0.19922,-1.1172 -0.59375,-1.4531 -0.38672,-0.34375 -0.93359,-0.51562 -1.6406,-0.51562 z"
         id="path56" />
    </symbol>
    <symbol
       id="p"
       overflow="visible">
      <path
         d="M 1.625,-10.625 H 5.0312 V -0.187 C 5.0312,1.2388 4.68745,2.3208 4,3.063 3.32031,3.813 2.332,4.188 1.0312,4.188 H -0.6407 V 1.9692 h 0.57812 c 0.64453,0 1.0859,-0.14844 1.3281,-0.4375 C 1.5038,1.23873 1.6249,0.66451 1.6249,-0.1871 Z m 0,-4.1406 H 5.0312 V -12 H 1.625 Z"
         id="path59" />
    </symbol>
    <symbol
       id="o"
       overflow="visible">
      <path
         d="m 10.219,-10.297 v 2.7656 C 9.75806,-7.8439 9.29712,-8.07046 8.8284,-8.2189 8.36746,-8.37515 7.8909,-8.45328 7.3909,-8.45328 c -0.96094,0 -1.7031,0.27734 -2.2344,0.82812 -0.52344,0.55469 -0.78125,1.3242 -0.78125,2.3125 0,1 0.25781,1.7773 0.78125,2.3281 0.53125,0.55469 1.2734,0.82812 2.2344,0.82812 0.53125,0 1.0312,-0.078125 1.5,-0.23438 0.47656,-0.15625 0.92188,-0.39062 1.3281,-0.70312 v 2.7812 C 9.68775,-0.11352 9.1448,0.03101 8.594,0.12476 8.05103,0.22632 7.5042,0.28101 6.9534,0.28101 c -1.918,0 -3.418,-0.48828 -4.5,-1.4688 -1.0859,-0.98828 -1.625,-2.3633 -1.625,-4.125 0,-1.75 0.53906,-3.1133 1.625,-4.0938 1.082,-0.98828 2.582,-1.4844 4.5,-1.4844 0.5625,0 1.1133,0.05469 1.6562,0.15625 0.53906,0.09375 1.0781,0.24219 1.6094,0.4375 z"
         id="path62" />
    </symbol>
  </defs>
  <g
     id="g1546"
     transform="matrix(0.05160645,0,0,0.05160645,3.9615152e-7,2.9188904)">
    <path
       d="m 446.40825,20.348 c -11.824,-11.668 -27.488,-18.09 -44.102,-18.09 -16.934,0 -32.805,6.6328 -44.695,18.691 l -13.441,13.621 C 309.72125,11.922 271.32225,0 232.53025,0 c -38.797,0 -77.195,11.914 -111.64,34.57 l -13.445,-13.625 C 95.554255,8.894 79.679255,2.257 62.750255,2.257 c -16.609,0 -32.27,6.4258 -44.098,18.09 -24.6370004,24.316 -24.9020004,64.145 -0.58984,88.789 l 19.832,20.105 c -12.398,25.879 -18.918,52.625 -18.918,77.836 0,89.355 81.827995,144.86 213.549995,144.86 131.72,0 213.55,-55.508 213.55,-144.86 0,-25.215 -6.5234,-51.969 -18.914,-77.84 l 19.84,-20.105 c 24.305,-24.637 24.039,-64.473 -0.59766,-88.785 z m -213.88,308.26 c -91.957,0 -190.219995,-31.926 -190.219995,-121.53 0,-23.914 6.9336,-49.691 20.051,-74.555 2.0312,-3.2188 29.926,-46.957 61.280995,-71.766 0.0898,-0.0703 0.10938,-0.18359 0.17969,-0.26562 0.84766,-0.34375 1.6797,-0.75391 2.4492,-1.3125 32.52,-23.457 69.266,-35.855 106.26,-35.855 37,0 73.738,12.398 106.25,35.855 0.76953,0.55859 1.6016,0.96875 2.4531,1.3125 0.0742,0.082 0.0898,0.19531 0.17969,0.26172 31.324,24.781 59.191,68.445 61.277,71.75 13.117,24.863 20.055,50.645 20.055,74.57 0.004,89.605 -98.262,121.53 -190.21,121.53 z"
       id="path67" />
    <path
       d="m 84.438255,152.808 c -22.402,22.398 -26.711,54.414 -9.625,71.496 17.082,17.09 49.093995,12.773 71.495995,-9.625 22.398,-22.398 26.707,-54.41 9.625,-71.496 -17.082,-17.086 -49.098,-12.773 -71.495995,9.625 z m 27.534995,52.812 c -11.547,0 -20.901995,-9.3555 -20.901995,-20.902 0,-11.5465 9.355495,-20.902 20.901995,-20.902 11.547,0 20.902,9.3555 20.902,20.902 0,11.5465 -9.3594,20.902 -20.902,20.902 z"
       id="path69" />
    <path
       d="m 380.61825,152.808 c -22.398,-22.398 -54.406,-26.707 -71.496,-9.625 -17.082,17.086 -12.773,49.098 9.625,71.496 22.406,22.398 54.414,26.711 71.496,9.625 17.09,-17.082 12.781,-49.094 -9.625,-71.496 z m -27.531,52.812 c -11.547,0 -20.902,-9.3555 -20.902,-20.902 0,-11.5465 9.3555,-20.902 20.902,-20.902 11.547,0 20.902,9.3555 20.902,20.902 0,11.5465 -9.3594,20.902 -20.902,20.902 z"
       id="path71" />
    <path
       d="m 254.38825,231.498 c 5.2812,-1.1133 9.2461,-5.793 9.2461,-11.41 0,-6.4453 -5.2227,-11.668 -11.668,-11.668 h -38.887 c -6.4453,0 -11.668,5.2227 -11.668,11.668 0,5.6172 3.9688,10.293 9.25,11.41 l -18.926,18.926 c -4.5586,4.5547 -4.5586,11.941 0,16.496 2.2734,2.2773 5.2656,3.418 8.25,3.418 2.9844,0 5.9727,-1.1406 8.25,-3.418 l 24.289,-24.289 24.289,24.289 c 2.2773,2.2773 5.2656,3.418 8.25,3.418 2.9844,0 5.9688,-1.1406 8.25,-3.418 4.5586,-4.5547 4.5586,-11.938 0,-16.496 z"
       id="path73" />
  </g>
</svg>
